<svg viewBox="0 0 202 147" xmlns="http://www.w3.org/2000/svg" xmlns:xlink="http://www.w3.org/1999/xlink" width="202.000000" height="147.000000" fill="none" customFrame="#000000">
	<rect id="logo" width="202.000000" height="147.000000" x="0.000000" y="0.000000" />
	<rect id="Rectangle" width="147.000000" height="147.000000" x="0.000000" y="0.000000" fill="rgb(31,30,30)" />
	<path id="LENNI" d="M26.6331 72.439L39.9651 72.439L39.9651 73L21.9141 73L21.9141 49.999L26.6001 49.999L26.6001 50.032L26.6331 50.032L26.6331 72.439ZM43.9313 73L62.0482 73L62.0482 72.439L48.6172 72.439L48.6172 61.285L59.1112 61.285L59.1112 60.691L48.6172 60.691L48.6172 50.56L62.0482 50.56L62.0482 49.999L43.9313 49.999L43.9313 73ZM70.6989 50.56L70.6989 73L66.0129 73L66.0129 49.999L70.6989 49.999C77.1669 49.999 81.6549 54.19 83.0739 60.328L83.0739 49.999L87.7599 49.999L87.7599 73L83.0739 73L83.0739 64.453C82.4139 51.649 73.5699 50.56 70.6989 50.56ZM97.3889 73L97.3889 50.56C100.26 50.56 109.104 51.649 109.764 64.453L109.764 73L114.45 73L114.45 49.999L109.764 49.999L109.764 60.328C108.345 54.19 103.857 49.999 97.3889 49.999L92.7029 49.999L92.7029 73L97.3889 73ZM124.079 73L119.393 73L119.393 49.999L124.079 49.999L124.079 73Z" fill="rgb(255,255,255)" fill-rule="evenodd" />
	<rect id="Rectangle" width="121.000000" height="42.000000" x="81.000000" y="92.000000" fill="rgb(188.062,51.332,36.0453)" />
	<path id="ART" d="M132.643 103.09L132.643 124L136.903 124L136.903 116.77L141.973 116.77L146.863 123.97L151.723 123.97L146.563 116.32C149.563 115.54 151.843 113.68 151.843 109.51C151.843 104.29 148.033 102.64 143.593 102.64C138.913 102.64 137.563 106.15 136.903 110.05L136.903 103.09L132.643 103.09ZM109.462 124L108.922 124L116.122 103.09L120.652 103.09L128.752 124L124.282 124L120.952 115.45L112.402 115.45L109.462 124ZM162.113 124L162.083 103.6L153.473 103.6L153.473 103.09L174.983 103.09L174.983 103.6L166.373 103.6L166.373 124L162.113 124ZM138.073 107.47C138.883 104.53 140.983 103.33 142.843 103.18C147.313 102.76 147.493 105.61 147.493 109.51C147.493 115.84 144.133 116.26 141.253 116.26L136.903 116.26C136.903 116.26 136.783 112.12 138.073 107.47ZM120.772 114.94L116.422 103.75L112.582 114.94L120.772 114.94Z" fill="rgb(255,255,255)" fill-rule="evenodd" />
</svg>
